<?xml version="1.0"?>
<svg xmlns="http://www.w3.org/2000/svg" xmlns:xlink="http://www.w3.org/1999/xlink" version="1.1" width="320px" height="320px" viewBox="0 0 320 320"><rect x="0" y="0" width="320" height="320" fill="#ffffff" fill-opacity="1"/><path fill="#000000" fill-opacity="1" d="M10,10L94,10L94,22L10,22ZM106,10L118,10L118,22L106,22ZM130,10L142,10L142,22L130,22ZM154,10L166,10L166,22L154,22ZM178,10L190,10L190,22L178,22ZM202,10L214,10L214,22L202,22ZM226,10L310,10L310,22L226,22ZM10,22L22,22L22,34L10,34ZM82,22L94,22L94,34L82,34ZM118,22L178,22L178,34L118,34ZM226,22L238,22L238,34L226,34ZM298,22L310,22L310,34L298,34ZM10,34L22,34L22,46L10,46ZM34,34L70,34L70,46L34,46ZM82,34L94,34L94,46L82,46ZM106,34L142,34L142,46L106,46ZM190,34L202,34L202,46L190,46ZM226,34L238,34L238,46L226,46ZM250,34L286,34L286,46L250,46ZM298,34L310,34L310,46L298,46ZM10,46L22,46L22,58L10,58ZM34,46L70,46L70,58L34,58ZM82,46L94,46L94,58L82,58ZM106,46L142,46L142,58L106,58ZM154,46L166,46L166,58L154,58ZM178,46L214,46L214,58L178,58ZM226,46L238,46L238,58L226,58ZM250,46L286,46L286,58L250,58ZM298,46L310,46L310,58L298,58ZM10,58L22,58L22,70L10,70ZM34,58L70,58L70,70L34,70ZM82,58L94,58L94,70L82,70ZM106,58L118,58L118,70L106,70ZM142,58L166,58L166,70L142,70ZM178,58L214,58L214,70L178,70ZM226,58L238,58L238,70L226,70ZM250,58L286,58L286,70L250,70ZM298,58L310,58L310,70L298,70ZM10,70L22,70L22,82L10,82ZM82,70L94,70L94,82L82,82ZM130,70L154,70L154,82L130,82ZM178,70L214,70L214,82L178,82ZM226,70L238,70L238,82L226,82ZM298,70L310,70L310,82L298,82ZM10,82L94,82L94,94L10,94ZM106,82L118,82L118,94L106,94ZM130,82L142,82L142,94L130,94ZM154,82L166,82L166,94L154,94ZM178,82L190,82L190,94L178,94ZM202,82L214,82L214,94L202,94ZM226,82L310,82L310,94L226,94ZM130,94L142,94L142,106L130,106ZM154,94L166,94L166,106L154,106ZM178,94L214,94L214,106L178,106ZM10,106L58,106L58,118L10,118ZM82,106L94,106L94,118L82,118ZM106,106L118,106L118,118L106,118ZM130,106L190,106L190,118L130,118ZM214,106L226,106L226,118L214,118ZM250,106L286,106L286,118L250,118ZM298,106L310,106L310,118L298,118ZM22,118L46,118L46,130L22,130ZM58,118L82,118L82,130L58,130ZM130,118L142,118L142,130L130,130ZM154,118L166,118L166,130L154,130ZM178,118L190,118L190,130L178,130ZM202,118L226,118L226,130L202,130ZM238,118L262,118L262,130L238,130ZM298,118L310,118L310,130L298,130ZM10,130L22,130L22,142L10,142ZM34,130L106,130L106,142L34,142ZM118,130L202,130L202,142L118,142ZM262,130L310,130L310,142L262,142ZM22,142L34,142L34,154L22,154ZM70,142L82,142L82,154L70,154ZM106,142L142,142L142,154L106,154ZM190,142L202,142L202,154L190,154ZM214,142L250,142L250,154L214,154ZM262,142L286,142L286,154L262,154ZM298,142L310,142L310,154L298,154ZM10,154L34,154L34,166L10,166ZM70,154L142,154L142,166L70,166ZM154,154L274,154L274,166L154,166ZM286,154L310,154L310,166L286,166ZM46,166L58,166L58,178L46,178ZM94,166L106,166L106,178L94,178ZM142,166L166,166L166,178L142,178ZM178,166L214,166L214,178L178,178ZM226,166L250,166L250,178L226,178ZM262,166L274,166L274,178L262,178ZM298,166L310,166L310,178L298,178ZM22,178L34,178L34,190L22,190ZM46,178L70,178L70,190L46,190ZM82,178L154,178L154,190L82,190ZM178,178L190,178L190,190L178,190ZM202,178L226,178L226,190L202,190ZM238,178L274,178L274,190L238,190ZM286,178L298,178L298,190L286,190ZM10,190L22,190L22,202L10,202ZM46,190L70,190L70,202L46,202ZM142,190L154,190L154,202L142,202ZM202,190L226,190L226,202L202,202ZM286,190L310,190L310,202L286,202ZM34,202L70,202L70,214L34,214ZM82,202L94,202L94,214L82,214ZM106,202L118,202L118,214L106,214ZM130,202L142,202L142,214L130,214ZM166,202L190,202L190,214L166,214ZM202,202L262,202L262,214L202,214ZM286,202L298,202L298,214L286,214ZM106,214L142,214L142,226L106,226ZM166,214L190,214L190,226L166,226ZM202,214L214,214L214,226L202,226ZM250,214L286,214L286,226L250,226ZM10,226L94,226L94,238L10,238ZM118,226L130,226L130,238L118,238ZM154,226L190,226L190,238L154,238ZM202,226L214,226L214,238L202,238ZM226,226L238,226L238,238L226,238ZM250,226L262,226L262,238L250,238ZM274,226L310,226L310,238L274,238ZM10,238L22,238L22,250L10,250ZM82,238L94,238L94,250L82,250ZM118,238L154,238L154,250L118,250ZM166,238L214,238L214,250L166,250ZM250,238L262,238L262,250L250,250ZM286,238L310,238L310,250L286,250ZM10,250L22,250L22,262L10,262ZM34,250L70,250L70,262L34,262ZM82,250L94,250L94,262L82,262ZM130,250L142,250L142,262L130,262ZM154,250L166,250L166,262L154,262ZM178,250L262,250L262,262L178,262ZM274,250L286,250L286,262L274,262ZM298,250L310,250L310,262L298,262ZM10,262L22,262L22,274L10,274ZM34,262L70,262L70,274L34,274ZM82,262L94,262L94,274L82,274ZM106,262L118,262L118,274L106,274ZM142,262L154,262L154,274L142,274ZM178,262L238,262L238,274L178,274ZM250,262L262,262L262,274L250,274ZM286,262L310,262L310,274L286,274ZM10,274L22,274L22,286L10,286ZM34,274L70,274L70,286L34,286ZM82,274L94,274L94,286L82,286ZM106,274L142,274L142,286L106,286ZM166,274L178,274L178,286L166,286ZM226,274L238,274L238,286L226,286ZM262,274L298,274L298,286L262,286ZM10,286L22,286L22,298L10,298ZM82,286L94,286L94,298L82,298ZM106,286L130,286L130,298L106,298ZM142,286L154,286L154,298L142,298ZM190,286L202,286L202,298L190,298ZM214,286L226,286L226,298L214,298ZM250,286L262,286L262,298L250,298ZM274,286L310,286L310,298L274,298ZM10,298L94,298L94,310L10,310ZM106,298L118,298L118,310L106,310ZM130,298L142,298L142,310L130,310ZM178,298L190,298L190,310L178,310ZM214,298L226,298L226,310L214,310ZM274,298L310,298L310,310L274,310Z"/></svg>
