<?xml version="1.0"?>
<svg xmlns="http://www.w3.org/2000/svg" xmlns:xlink="http://www.w3.org/1999/xlink" version="1.1" width="320px" height="320px" viewBox="0 0 320 320"><rect x="0" y="0" width="320" height="320" fill="#ffffff" fill-opacity="1"/><path fill="#000000" fill-opacity="1" d="M15,15L85,15L85,25L15,25ZM105,15L115,15L115,25L105,25ZM175,15L185,15L185,25L175,25ZM195,15L205,15L205,25L195,25ZM235,15L305,15L305,25L235,25ZM15,25L25,25L25,35L15,35ZM75,25L85,25L85,35L75,35ZM95,25L115,25L115,35L95,35ZM125,25L205,25L205,35L125,35ZM215,25L225,25L225,35L215,35ZM235,25L245,25L245,35L235,35ZM295,25L305,25L305,35L295,35ZM15,35L25,35L25,45L15,45ZM35,35L65,35L65,45L35,45ZM75,35L85,35L85,45L75,45ZM105,35L135,35L135,45L105,45ZM185,35L215,35L215,45L185,45ZM235,35L245,35L245,45L235,45ZM255,35L285,35L285,45L255,45ZM295,35L305,35L305,45L295,45ZM15,45L25,45L25,55L15,55ZM35,45L65,45L65,55L35,55ZM75,45L85,45L85,55L75,55ZM95,45L115,45L115,55L95,55ZM125,45L135,45L135,55L125,55ZM155,45L175,45L175,55L155,55ZM185,45L195,45L195,55L185,55ZM235,45L245,45L245,55L235,55ZM255,45L285,45L285,55L255,55ZM295,45L305,45L305,55L295,55ZM15,55L25,55L25,65L15,65ZM35,55L65,55L65,65L35,65ZM75,55L85,55L85,65L75,65ZM115,55L125,55L125,65L115,65ZM135,55L145,55L145,65L135,65ZM155,55L185,55L185,65L155,65ZM235,55L245,55L245,65L235,65ZM255,55L285,55L285,65L255,65ZM295,55L305,55L305,65L295,65ZM15,65L25,65L25,75L15,75ZM75,65L85,65L85,75L75,75ZM95,65L105,65L105,75L95,75ZM115,65L125,65L125,75L115,75ZM145,65L175,65L175,75L145,75ZM185,65L195,65L195,75L185,75ZM205,65L225,65L225,75L205,75ZM235,65L245,65L245,75L235,75ZM295,65L305,65L305,75L295,75ZM15,75L85,75L85,85L15,85ZM95,75L105,75L105,85L95,85ZM115,75L125,75L125,85L115,85ZM135,75L145,75L145,85L135,85ZM155,75L165,75L165,85L155,85ZM175,75L185,75L185,85L175,85ZM195,75L205,75L205,85L195,85ZM215,75L225,75L225,85L215,85ZM235,75L305,75L305,85L235,85ZM135,85L145,85L145,95L135,95ZM175,85L185,85L185,95L175,95ZM205,85L215,85L215,95L205,95ZM15,95L65,95L65,105L15,105ZM75,95L125,95L125,105L75,105ZM135,95L145,95L145,105L135,105ZM155,95L185,95L185,105L155,105ZM195,95L205,95L205,105L195,105ZM225,95L235,95L235,105L225,105ZM245,95L255,95L255,105L245,105ZM265,95L275,95L275,105L265,105ZM285,95L295,95L295,105L285,105ZM15,105L25,105L25,115L15,115ZM45,105L65,105L65,115L45,115ZM105,105L115,105L115,115L105,115ZM175,105L185,105L185,115L175,115ZM255,105L275,105L275,115L255,115ZM285,105L295,105L295,115L285,115ZM35,115L45,115L45,125L35,125ZM65,115L85,115L85,125L65,125ZM105,115L115,115L115,125L105,125ZM125,115L155,115L155,125L125,125ZM185,115L195,115L195,125L185,125ZM215,115L225,115L225,125L215,125ZM265,115L285,115L285,125L265,125ZM35,125L45,125L45,135L35,135ZM55,125L65,125L65,135L55,135ZM85,125L135,125L135,135L85,135ZM145,125L165,125L165,135L145,135ZM205,125L215,125L215,135L205,135ZM225,125L275,125L275,135L225,135ZM295,125L305,125L305,135L295,135ZM15,135L25,135L25,145L15,145ZM75,135L95,135L95,145L75,145ZM105,135L115,135L115,145L105,145ZM125,135L135,135L135,145L125,145ZM165,135L175,135L175,145L165,145ZM185,135L205,135L205,145L185,145ZM235,135L255,135L255,145L235,145ZM45,145L65,145L65,155L45,155ZM85,145L95,145L95,155L85,155ZM115,145L125,145L125,155L115,155ZM135,145L145,145L145,155L135,155ZM165,145L185,145L185,155L165,155ZM195,145L205,145L205,155L195,155ZM225,145L235,145L235,155L225,155ZM255,145L275,145L275,155L255,155ZM285,145L295,145L295,155L285,155ZM15,155L25,155L25,165L15,165ZM35,155L65,155L65,165L35,165ZM75,155L105,155L105,165L75,165ZM115,155L125,155L125,165L115,165ZM145,155L185,155L185,165L145,165ZM205,155L225,155L225,165L205,165ZM265,155L305,155L305,165L265,165ZM15,165L25,165L25,175L15,175ZM85,165L95,165L95,175L85,175ZM105,165L115,165L115,175L105,175ZM135,165L145,165L145,175L135,175ZM175,165L185,165L185,175L175,175ZM205,165L215,165L215,175L205,175ZM225,165L265,165L265,175L225,175ZM285,165L305,165L305,175L285,175ZM25,175L35,175L35,185L25,185ZM45,175L65,175L65,185L45,185ZM75,175L95,175L95,185L75,185ZM115,175L125,175L125,185L115,185ZM135,175L145,175L145,185L135,185ZM165,175L205,175L205,185L165,185ZM225,175L255,175L255,185L225,185ZM15,185L25,185L25,195L15,195ZM55,185L75,185L75,195L55,195ZM105,185L125,185L125,195L105,195ZM155,185L165,185L165,195L155,195ZM195,185L215,185L215,195L195,195ZM225,185L235,185L235,195L225,195ZM245,185L255,185L255,195L245,195ZM15,195L25,195L25,205L15,205ZM35,195L85,195L85,205L35,205ZM125,195L175,195L175,205L125,205ZM185,195L195,195L195,205L185,205ZM205,195L225,195L225,205L205,205ZM265,195L305,195L305,205L265,205ZM15,205L25,205L25,215L15,215ZM45,205L55,205L55,215L45,215ZM65,205L75,205L75,215L65,215ZM85,205L95,205L95,215L85,215ZM125,205L135,205L135,215L125,215ZM175,205L185,205L185,215L175,215ZM195,205L215,205L215,215L195,215ZM225,205L265,205L265,215L225,215ZM275,205L305,205L305,215L275,215ZM15,215L25,215L25,225L15,225ZM35,215L55,215L55,225L35,225ZM75,215L85,215L85,225L75,225ZM95,215L115,215L115,225L95,225ZM125,215L135,215L135,225L125,225ZM155,215L185,215L185,225L155,225ZM215,215L265,215L265,225L215,225ZM275,215L295,215L295,225L275,225ZM95,225L105,225L105,235L95,235ZM115,225L125,225L125,235L115,235ZM135,225L145,225L145,235L135,235ZM165,225L185,225L185,235L165,235ZM215,225L225,225L225,235L215,235ZM255,225L265,225L265,235L255,235ZM285,225L295,225L295,235L285,235ZM15,235L85,235L85,245L15,245ZM95,235L125,235L125,245L95,245ZM145,235L155,235L155,245L145,245ZM165,235L175,235L175,245L165,245ZM185,235L195,235L195,245L185,245ZM215,235L225,235L225,245L215,245ZM235,235L245,235L245,245L235,245ZM255,235L265,235L265,245L255,245ZM275,235L285,235L285,245L275,245ZM15,245L25,245L25,255L15,255ZM75,245L85,245L85,255L75,255ZM105,245L125,245L125,255L105,255ZM135,245L165,245L165,255L135,255ZM175,245L185,245L185,255L175,255ZM195,245L225,245L225,255L195,255ZM255,245L305,245L305,255L255,255ZM15,255L25,255L25,265L15,265ZM35,255L65,255L65,265L35,265ZM75,255L85,255L85,265L75,265ZM95,255L105,255L105,265L95,265ZM135,255L145,255L145,265L135,265ZM165,255L175,255L175,265L165,265ZM215,255L305,255L305,265L215,265ZM15,265L25,265L25,275L15,275ZM35,265L65,265L65,275L35,275ZM75,265L85,265L85,275L75,275ZM95,265L105,265L105,275L95,275ZM195,265L225,265L225,275L195,275ZM235,265L245,265L245,275L235,275ZM255,265L265,265L265,275L255,275ZM15,275L25,275L25,285L15,285ZM35,275L65,275L65,285L35,285ZM75,275L85,275L85,285L75,285ZM95,275L105,275L105,285L95,285ZM115,275L145,275L145,285L115,285ZM165,275L195,275L195,285L165,285ZM205,275L215,275L215,285L205,285ZM235,275L255,275L255,285L235,285ZM275,275L295,275L295,285L275,285ZM15,285L25,285L25,295L15,295ZM75,285L85,285L85,295L75,295ZM95,285L135,285L135,295L95,295ZM175,285L225,285L225,295L175,295ZM265,285L285,285L285,295L265,295ZM295,285L305,285L305,295L295,295ZM15,295L85,295L85,305L15,305ZM95,295L145,295L145,305L95,305ZM165,295L185,295L185,305L165,305ZM195,295L205,295L205,305L195,305ZM235,295L285,295L285,305L235,305Z"/></svg>
