<?xml version="1.0"?>
<svg xmlns="http://www.w3.org/2000/svg" xmlns:xlink="http://www.w3.org/1999/xlink" version="1.1" width="320px" height="320px" viewBox="0 0 320 320"><rect x="0" y="0" width="320" height="320" fill="#ffffff" fill-opacity="1"/><path fill="#000000" fill-opacity="1" d="M15,15L85,15L85,25L15,25ZM105,15L115,15L115,25L105,25ZM135,15L145,15L145,25L135,25ZM175,15L185,15L185,25L175,25ZM195,15L205,15L205,25L195,25ZM215,15L225,15L225,25L215,25ZM235,15L305,15L305,25L235,25ZM15,25L25,25L25,35L15,35ZM75,25L85,25L85,35L75,35ZM115,25L145,25L145,35L115,35ZM155,25L165,25L165,35L155,35ZM175,25L185,25L185,35L175,35ZM205,25L225,25L225,35L205,35ZM235,25L245,25L245,35L235,35ZM295,25L305,25L305,35L295,35ZM15,35L25,35L25,45L15,45ZM35,35L65,35L65,45L35,45ZM75,35L85,35L85,45L75,45ZM95,35L125,35L125,45L95,45ZM135,35L145,35L145,45L135,45ZM155,35L225,35L225,45L155,45ZM235,35L245,35L245,45L235,45ZM255,35L285,35L285,45L255,45ZM295,35L305,35L305,45L295,45ZM15,45L25,45L25,55L15,55ZM35,45L65,45L65,55L35,55ZM75,45L85,45L85,55L75,55ZM105,45L135,45L135,55L105,55ZM155,45L185,45L185,55L155,55ZM195,45L215,45L215,55L195,55ZM235,45L245,45L245,55L235,55ZM255,45L285,45L285,55L255,55ZM295,45L305,45L305,55L295,55ZM15,55L25,55L25,65L15,65ZM35,55L65,55L65,65L35,65ZM75,55L85,55L85,65L75,65ZM115,55L125,55L125,65L115,65ZM155,55L175,55L175,65L155,65ZM215,55L225,55L225,65L215,65ZM235,55L245,55L245,65L235,65ZM255,55L285,55L285,65L255,65ZM295,55L305,55L305,65L295,65ZM15,65L25,65L25,75L15,75ZM75,65L85,65L85,75L75,75ZM105,65L115,65L115,75L105,75ZM155,65L165,65L165,75L155,75ZM215,65L225,65L225,75L215,75ZM235,65L245,65L245,75L235,75ZM295,65L305,65L305,75L295,75ZM15,75L85,75L85,85L15,85ZM95,75L105,75L105,85L95,85ZM115,75L125,75L125,85L115,85ZM135,75L145,75L145,85L135,85ZM155,75L165,75L165,85L155,85ZM175,75L185,75L185,85L175,85ZM195,75L205,75L205,85L195,85ZM215,75L225,75L225,85L215,85ZM235,75L305,75L305,85L235,85ZM95,85L125,85L125,95L95,95ZM135,85L155,85L155,95L135,95ZM15,95L45,95L45,105L15,105ZM55,95L105,95L105,105L55,105ZM115,95L135,95L135,105L115,105ZM145,95L165,95L165,105L145,105ZM175,95L195,95L195,105L175,105ZM215,95L245,95L245,105L215,105ZM275,95L285,95L285,105L275,105ZM15,105L35,105L35,115L15,115ZM45,105L65,105L65,115L45,115ZM85,105L105,105L105,115L85,115ZM115,105L135,105L135,115L115,115ZM145,105L155,105L155,115L145,115ZM165,105L215,105L215,115L165,115ZM245,105L255,105L255,115L245,115ZM285,105L295,105L295,115L285,115ZM35,115L65,115L65,125L35,125ZM75,115L85,115L85,125L75,125ZM95,115L115,115L115,125L95,125ZM145,115L155,115L155,125L145,125ZM185,115L195,115L195,125L185,125ZM225,115L245,115L245,125L225,125ZM265,115L275,115L275,125L265,125ZM285,115L305,115L305,125L285,125ZM35,125L45,125L45,135L35,135ZM55,125L65,125L65,135L55,135ZM95,125L105,125L105,135L95,135ZM125,125L135,125L135,135L125,135ZM145,125L155,125L155,135L145,135ZM175,125L205,125L205,135L175,135ZM225,125L245,125L245,135L225,135ZM295,125L305,125L305,135L295,135ZM15,135L25,135L25,145L15,145ZM65,135L105,135L105,145L65,145ZM135,135L155,135L155,145L135,145ZM195,135L205,135L205,145L195,145ZM215,135L235,135L235,145L215,145ZM245,135L255,135L255,145L245,145ZM275,135L305,135L305,145L275,145ZM15,145L35,145L35,155L15,155ZM85,145L105,145L105,155L85,155ZM125,145L155,145L155,155L125,155ZM185,145L215,145L215,155L185,155ZM225,145L235,145L235,155L225,155ZM245,145L255,145L255,155L245,155ZM285,145L295,145L295,155L285,155ZM45,155L85,155L85,165L45,165ZM95,155L105,155L105,165L95,165ZM115,155L165,155L165,165L115,165ZM175,155L195,155L195,165L175,165ZM205,155L215,155L215,165L205,165ZM225,155L245,155L245,165L225,165ZM265,155L275,155L275,165L265,165ZM55,165L65,165L65,175L55,175ZM85,165L95,165L95,175L85,175ZM135,165L165,165L165,175L135,175ZM175,165L205,165L205,175L175,175ZM225,165L245,165L245,175L225,175ZM265,165L275,165L275,175L265,175ZM285,165L305,165L305,175L285,175ZM25,175L35,175L35,185L25,185ZM45,175L55,175L55,185L45,185ZM65,175L85,175L85,185L65,185ZM95,175L105,175L105,185L95,185ZM125,175L135,175L135,185L125,185ZM155,175L165,175L165,185L155,185ZM185,175L205,175L205,185L185,185ZM215,175L225,175L225,185L215,185ZM245,175L255,175L255,185L245,185ZM275,175L305,175L305,185L275,185ZM35,185L45,185L45,195L35,195ZM65,185L75,185L75,195L65,195ZM95,185L105,185L105,195L95,195ZM125,185L135,185L135,195L125,195ZM145,185L155,185L155,195L145,195ZM165,185L195,185L195,195L165,195ZM225,185L235,185L235,195L225,195ZM255,185L275,185L275,195L255,195ZM285,185L305,185L305,195L285,195ZM15,195L25,195L25,205L15,205ZM45,195L125,195L125,205L45,205ZM145,195L165,195L165,205L145,205ZM175,195L185,195L185,205L175,205ZM205,195L215,195L215,205L205,205ZM225,195L245,195L245,205L225,205ZM265,195L275,195L275,205L265,205ZM25,205L45,205L45,215L25,215ZM55,205L65,205L65,215L55,215ZM95,205L105,205L105,215L95,215ZM125,205L135,205L135,215L125,215ZM145,205L165,205L165,215L145,215ZM175,205L205,205L205,215L175,215ZM225,205L245,205L245,215L225,215ZM265,205L305,205L305,215L265,215ZM15,215L25,215L25,225L15,225ZM35,215L45,215L45,225L35,225ZM65,215L85,215L85,225L65,225ZM105,215L125,215L125,225L105,225ZM135,215L165,215L165,225L135,225ZM175,215L205,215L205,225L175,225ZM215,215L265,215L265,225L215,225ZM295,215L305,215L305,225L295,225ZM95,225L155,225L155,235L95,235ZM185,225L195,225L195,235L185,235ZM205,225L225,225L225,235L205,235ZM255,225L275,225L275,235L255,235ZM285,225L295,225L295,235L285,235ZM15,235L85,235L85,245L15,245ZM95,235L105,235L105,245L95,245ZM125,235L155,235L155,245L125,245ZM185,235L195,235L195,245L185,245ZM215,235L225,235L225,245L215,245ZM235,235L245,235L245,245L235,245ZM255,235L265,235L265,245L255,245ZM285,235L305,235L305,245L285,245ZM15,245L25,245L25,255L15,255ZM75,245L85,245L85,255L75,255ZM95,245L105,245L105,255L95,255ZM115,245L125,245L125,255L115,255ZM135,245L155,245L155,255L135,255ZM175,245L195,245L195,255L175,255ZM215,245L225,245L225,255L215,255ZM255,245L265,245L265,255L255,255ZM275,245L305,245L305,255L275,255ZM15,255L25,255L25,265L15,265ZM35,255L65,255L65,265L35,265ZM75,255L85,255L85,265L75,265ZM95,255L115,255L115,265L95,265ZM125,255L145,255L145,265L125,265ZM215,255L275,255L275,265L215,265ZM15,265L25,265L25,275L15,275ZM35,265L65,265L65,275L35,275ZM75,265L85,265L85,275L75,275ZM105,265L115,265L115,275L105,275ZM125,265L135,265L135,275L125,275ZM145,265L155,265L155,275L145,275ZM165,265L175,265L175,275L165,275ZM185,265L205,265L205,275L185,275ZM215,265L225,265L225,275L215,275ZM235,265L255,265L255,275L235,275ZM265,265L275,265L275,275L265,275ZM15,275L25,275L25,285L15,285ZM35,275L65,275L65,285L35,285ZM75,275L85,275L85,285L75,285ZM95,275L105,275L105,285L95,285ZM135,275L195,275L195,285L135,285ZM205,275L235,275L235,285L205,285ZM245,275L255,275L255,285L245,285ZM295,275L305,275L305,285L295,285ZM15,285L25,285L25,295L15,295ZM75,285L85,285L85,295L75,295ZM95,285L115,285L115,295L95,295ZM125,285L135,285L135,295L125,295ZM145,285L165,285L165,295L145,295ZM175,285L195,285L195,295L175,295ZM215,285L225,285L225,295L215,295ZM245,285L265,285L265,295L245,295ZM275,285L285,285L285,295L275,295ZM295,285L305,285L305,295L295,295ZM15,295L85,295L85,305L15,305ZM95,295L105,295L105,305L95,305ZM115,295L125,295L125,305L115,305ZM155,295L165,295L165,305L155,305ZM175,295L185,295L185,305L175,305ZM215,295L235,295L235,305L215,305ZM245,295L275,295L275,305L245,305ZM285,295L305,295L305,305L285,305Z"/></svg>
