<?xml version="1.0"?>
<svg xmlns="http://www.w3.org/2000/svg" xmlns:xlink="http://www.w3.org/1999/xlink" version="1.1" width="320px" height="320px" viewBox="0 0 320 320"><rect x="0" y="0" width="320" height="320" fill="#ffffff" fill-opacity="1"/><path fill="#000000" fill-opacity="1" d="M11,11L74,11L74,20L11,20ZM101,11L110,11L110,20L101,20ZM119,11L155,11L155,20L119,20ZM182,11L191,11L191,20L182,20ZM200,11L218,11L218,20L200,20ZM245,11L308,11L308,20L245,20ZM11,20L20,20L20,29L11,29ZM65,20L74,20L74,29L65,29ZM83,20L92,20L92,29L83,29ZM101,20L110,20L110,29L101,29ZM128,20L173,20L173,29L128,29ZM191,20L200,20L200,29L191,29ZM209,20L218,20L218,29L209,29ZM227,20L236,20L236,29L227,29ZM245,20L254,20L254,29L245,29ZM299,20L308,20L308,29L299,29ZM11,29L20,29L20,38L11,38ZM29,29L56,29L56,38L29,38ZM65,29L74,29L74,38L65,38ZM119,29L137,29L137,38L119,38ZM146,29L155,29L155,38L146,38ZM173,29L191,29L191,38L173,38ZM200,29L209,29L209,38L200,38ZM218,29L227,29L227,38L218,38ZM245,29L254,29L254,38L245,38ZM263,29L290,29L290,38L263,38ZM299,29L308,29L308,38L299,38ZM11,38L20,38L20,47L11,47ZM29,38L56,38L56,47L29,47ZM65,38L74,38L74,47L65,47ZM83,38L110,38L110,47L83,47ZM119,38L128,38L128,47L119,47ZM137,38L155,38L155,47L137,47ZM164,38L173,38L173,47L164,47ZM200,38L218,38L218,47L200,47ZM227,38L236,38L236,47L227,47ZM245,38L254,38L254,47L245,47ZM263,38L290,38L290,47L263,47ZM299,38L308,38L308,47L299,47ZM11,47L20,47L20,56L11,56ZM29,47L56,47L56,56L29,56ZM65,47L74,47L74,56L65,56ZM92,47L101,47L101,56L92,56ZM146,47L164,47L164,56L146,56ZM173,47L191,47L191,56L173,56ZM200,47L209,47L209,56L200,56ZM218,47L236,47L236,56L218,56ZM245,47L254,47L254,56L245,56ZM263,47L290,47L290,56L263,56ZM299,47L308,47L308,56L299,56ZM11,56L20,56L20,65L11,65ZM65,56L74,56L74,65L65,65ZM83,56L101,56L101,65L83,65ZM110,56L128,56L128,65L110,65ZM164,56L173,56L173,65L164,65ZM191,56L200,56L200,65L191,65ZM209,56L218,56L218,65L209,65ZM245,56L254,56L254,65L245,65ZM299,56L308,56L308,65L299,65ZM11,65L74,65L74,74L11,74ZM83,65L92,65L92,74L83,74ZM101,65L110,65L110,74L101,74ZM119,65L128,65L128,74L119,74ZM137,65L146,65L146,74L137,74ZM155,65L164,65L164,74L155,74ZM173,65L182,65L182,74L173,74ZM191,65L200,65L200,74L191,74ZM209,65L218,65L218,74L209,74ZM227,65L236,65L236,74L227,74ZM245,65L308,65L308,74L245,74ZM92,74L119,74L119,83L92,83ZM137,74L146,74L146,83L137,83ZM155,74L164,74L164,83L155,83ZM173,74L191,74L191,83L173,83ZM11,83L56,83L56,92L11,92ZM65,83L101,83L101,92L65,92ZM110,83L119,83L119,92L110,92ZM155,83L173,83L173,92L155,92ZM200,83L209,83L209,92L200,92ZM227,83L245,83L245,92L227,92ZM254,83L263,83L263,92L254,92ZM272,83L281,83L281,92L272,92ZM290,83L299,83L299,92L290,92ZM20,92L38,92L38,101L20,101ZM47,92L65,92L65,101L47,101ZM74,92L92,92L92,101L74,101ZM101,92L110,92L110,101L101,101ZM119,92L155,92L155,101L119,101ZM173,92L254,92L254,101L173,101ZM263,92L290,92L290,101L263,101ZM11,101L20,101L20,110L11,110ZM38,101L47,101L47,110L38,110ZM56,101L74,101L74,110L56,110ZM101,101L110,101L110,110L101,110ZM128,101L182,101L182,110L128,110ZM191,101L200,101L200,110L191,110ZM209,101L218,101L218,110L209,110ZM236,101L245,101L245,110L236,110ZM254,101L281,101L281,110L254,110ZM290,101L299,101L299,110L290,110ZM20,110L38,110L38,119L20,119ZM47,110L65,110L65,119L47,119ZM119,110L137,110L137,119L119,119ZM146,110L155,110L155,119L146,119ZM182,110L191,110L191,119L182,119ZM200,110L227,110L227,119L200,119ZM236,110L254,110L254,119L236,119ZM281,110L308,110L308,119L281,119ZM11,119L20,119L20,128L11,128ZM29,119L47,119L47,128L29,128ZM65,119L83,119L83,128L65,128ZM92,119L110,119L110,128L92,128ZM119,119L128,119L128,128L119,128ZM137,119L155,119L155,128L137,128ZM254,119L263,119L263,128L254,128ZM281,119L299,119L299,128L281,128ZM11,128L20,128L20,137L11,137ZM29,128L65,128L65,137L29,137ZM83,128L101,128L101,137L83,137ZM146,128L164,128L164,137L146,137ZM173,128L209,128L209,137L173,137ZM227,128L272,128L272,137L227,137ZM281,128L290,128L290,137L281,137ZM11,137L29,137L29,146L11,146ZM56,137L74,137L74,146L56,146ZM83,137L92,137L92,146L83,146ZM101,137L128,137L128,146L101,146ZM164,137L182,137L182,146L164,146ZM209,137L218,137L218,146L209,146ZM236,137L245,137L245,146L236,146ZM254,137L281,137L281,146L254,146ZM290,137L299,137L299,146L290,146ZM11,146L20,146L20,155L11,155ZM29,146L38,146L38,155L29,155ZM56,146L65,146L65,155L56,155ZM83,146L119,146L119,155L83,155ZM137,146L146,146L146,155L137,155ZM155,146L173,146L173,155L155,155ZM182,146L209,146L209,155L182,155ZM218,146L227,146L227,155L218,155ZM236,146L254,146L254,155L236,155ZM290,146L308,146L308,155L290,155ZM11,155L29,155L29,164L11,164ZM47,155L56,155L56,164L47,164ZM65,155L83,155L83,164L65,164ZM92,155L101,155L101,164L92,164ZM110,155L119,155L119,164L110,164ZM173,155L182,155L182,164L173,164ZM191,155L218,155L218,164L191,164ZM236,155L245,155L245,164L236,164ZM254,155L263,155L263,164L254,164ZM290,155L299,155L299,164L290,164ZM20,164L29,164L29,173L20,173ZM38,164L47,164L47,173L38,173ZM101,164L110,164L110,173L101,173ZM119,164L155,164L155,173L119,173ZM173,164L182,164L182,173L173,173ZM200,164L227,164L227,173L200,173ZM263,164L272,164L272,173L263,173ZM281,164L290,164L290,173L281,173ZM29,173L92,173L92,182L29,182ZM128,173L155,173L155,182L128,182ZM164,173L173,173L173,182L164,182ZM209,173L236,173L236,182L209,182ZM254,173L272,173L272,182L254,182ZM299,173L308,173L308,182L299,182ZM11,182L20,182L20,191L11,191ZM92,182L101,182L101,191L92,191ZM119,182L137,182L137,191L119,191ZM146,182L155,182L155,191L146,191ZM173,182L209,182L209,191L173,191ZM218,182L254,182L254,191L218,191ZM272,182L281,182L281,191L272,191ZM299,182L308,182L308,191L299,191ZM20,191L38,191L38,200L20,200ZM65,191L74,191L74,200L65,200ZM92,191L110,191L110,200L92,200ZM119,191L128,191L128,200L119,200ZM137,191L173,191L173,200L137,200ZM227,191L236,191L236,200L227,200ZM245,191L254,191L254,200L245,200ZM272,191L281,191L281,200L272,200ZM290,191L299,191L299,200L290,200ZM11,200L20,200L20,209L11,209ZM38,200L65,200L65,209L38,209ZM83,200L92,200L92,209L83,209ZM146,200L164,200L164,209L146,209ZM173,200L182,200L182,209L173,209ZM200,200L218,200L218,209L200,209ZM227,200L236,200L236,209L227,209ZM245,200L263,200L263,209L245,209ZM281,200L299,200L299,209L281,209ZM11,209L20,209L20,218L11,218ZM29,209L38,209L38,218L29,218ZM47,209L56,209L56,218L47,218ZM65,209L74,209L74,218L65,218ZM83,209L101,209L101,218L83,218ZM110,209L128,209L128,218L110,218ZM146,209L155,209L155,218L146,218ZM164,209L200,209L200,218L164,218ZM209,209L218,209L218,218L209,218ZM254,209L272,209L272,218L254,218ZM290,209L299,209L299,218L290,218ZM11,218L20,218L20,227L11,227ZM29,218L65,218L65,227L29,227ZM110,218L119,218L119,227L110,227ZM137,218L146,218L146,227L137,227ZM155,218L164,218L164,227L155,227ZM182,218L191,218L191,227L182,227ZM200,218L254,218L254,227L200,227ZM272,218L281,218L281,227L272,227ZM290,218L308,218L308,227L290,227ZM11,227L20,227L20,236L11,236ZM29,227L74,227L74,236L29,236ZM92,227L101,227L101,236L92,236ZM110,227L119,227L119,236L110,236ZM146,227L164,227L164,236L146,236ZM200,227L218,227L218,236L200,236ZM227,227L281,227L281,236L227,236ZM83,236L92,236L92,245L83,245ZM101,236L110,236L110,245L101,245ZM119,236L146,236L146,245L119,245ZM173,236L191,236L191,245L173,245ZM200,236L209,236L209,245L200,245ZM227,236L236,236L236,245L227,245ZM263,236L290,236L290,245L263,245ZM11,245L74,245L74,254L11,254ZM83,245L92,245L92,254L83,254ZM128,245L155,245L155,254L128,254ZM164,245L182,245L182,254L164,254ZM191,245L200,245L200,254L191,254ZM227,245L236,245L236,254L227,254ZM245,245L254,245L254,254L245,254ZM263,245L272,245L272,254L263,254ZM290,245L299,245L299,254L290,254ZM11,254L20,254L20,263L11,263ZM65,254L74,254L74,263L65,263ZM119,254L137,254L137,263L119,263ZM155,254L164,254L164,263L155,263ZM182,254L191,254L191,263L182,263ZM227,254L236,254L236,263L227,263ZM263,254L281,254L281,263L263,263ZM299,254L308,254L308,263L299,263ZM11,263L20,263L20,272L11,272ZM29,263L56,263L56,272L29,272ZM65,263L74,263L74,272L65,272ZM83,263L92,263L92,272L83,272ZM119,263L128,263L128,272L119,272ZM137,263L173,263L173,272L137,272ZM191,263L200,263L200,272L191,272ZM209,263L272,263L272,272L209,272ZM281,263L290,263L290,272L281,272ZM299,263L308,263L308,272L299,272ZM11,272L20,272L20,281L11,281ZM29,272L56,272L56,281L29,281ZM65,272L74,272L74,281L65,281ZM83,272L101,272L101,281L83,281ZM155,272L164,272L164,281L155,281ZM200,272L227,272L227,281L200,281ZM245,272L254,272L254,281L245,281ZM263,272L299,272L299,281L263,281ZM11,281L20,281L20,290L11,290ZM29,281L56,281L56,290L29,290ZM65,281L74,281L74,290L65,290ZM83,281L101,281L101,290L83,290ZM110,281L128,281L128,290L110,290ZM146,281L173,281L173,290L146,290ZM191,281L200,281L200,290L191,290ZM209,281L218,281L218,290L209,290ZM227,281L236,281L236,290L227,290ZM254,281L263,281L263,290L254,290ZM11,290L20,290L20,299L11,299ZM65,290L74,290L74,299L65,299ZM83,290L92,290L92,299L83,299ZM110,290L119,290L119,299L110,299ZM137,290L146,290L146,299L137,299ZM173,290L191,290L191,299L173,299ZM200,290L209,290L209,299L200,299ZM227,290L236,290L236,299L227,299ZM254,290L281,290L281,299L254,299ZM290,290L308,290L308,299L290,299ZM11,299L74,299L74,308L11,308ZM83,299L92,299L92,308L83,308ZM110,299L119,299L119,308L110,308ZM146,299L164,299L164,308L146,308ZM227,299L254,299L254,308L227,308ZM272,299L281,299L281,308L272,308ZM290,299L299,299L299,308L290,308Z"/></svg>
