<?xml version="1.0"?>
<svg xmlns="http://www.w3.org/2000/svg" xmlns:xlink="http://www.w3.org/1999/xlink" version="1.1" width="320px" height="320px" viewBox="0 0 320 320"><rect x="0" y="0" width="320" height="320" fill="#ffffff" fill-opacity="1"/><path fill="#000000" fill-opacity="1" d="M15,15L85,15L85,25L15,25ZM95,15L115,15L115,25L95,25ZM155,15L175,15L175,25L155,25ZM195,15L205,15L205,25L195,25ZM235,15L305,15L305,25L235,25ZM15,25L25,25L25,35L15,35ZM75,25L85,25L85,35L75,35ZM145,25L155,25L155,35L145,35ZM235,25L245,25L245,35L235,35ZM295,25L305,25L305,35L295,35ZM15,35L25,35L25,45L15,45ZM35,35L65,35L65,45L35,45ZM75,35L85,35L85,45L75,45ZM95,35L105,35L105,45L95,45ZM125,35L155,35L155,45L125,45ZM165,35L175,35L175,45L165,45ZM185,35L195,35L195,45L185,45ZM235,35L245,35L245,45L235,45ZM255,35L285,35L285,45L255,45ZM295,35L305,35L305,45L295,45ZM15,45L25,45L25,55L15,55ZM35,45L65,45L65,55L35,55ZM75,45L85,45L85,55L75,55ZM95,45L115,45L115,55L95,55ZM125,45L135,45L135,55L125,55ZM145,45L155,45L155,55L145,55ZM165,45L195,45L195,55L165,55ZM235,45L245,45L245,55L235,55ZM255,45L285,45L285,55L255,55ZM295,45L305,45L305,55L295,55ZM15,55L25,55L25,65L15,65ZM35,55L65,55L65,65L35,65ZM75,55L85,55L85,65L75,65ZM95,55L135,55L135,65L95,65ZM185,55L205,55L205,65L185,65ZM215,55L225,55L225,65L215,65ZM235,55L245,55L245,65L235,65ZM255,55L285,55L285,65L255,65ZM295,55L305,55L305,65L295,65ZM15,65L25,65L25,75L15,75ZM75,65L85,65L85,75L75,75ZM105,65L115,65L115,75L105,75ZM135,65L145,65L145,75L135,75ZM155,65L165,65L165,75L155,75ZM175,65L205,65L205,75L175,75ZM215,65L225,65L225,75L215,75ZM235,65L245,65L245,75L235,75ZM295,65L305,65L305,75L295,75ZM15,75L85,75L85,85L15,85ZM95,75L105,75L105,85L95,85ZM115,75L125,75L125,85L115,85ZM135,75L145,75L145,85L135,85ZM155,75L165,75L165,85L155,85ZM175,75L185,75L185,85L175,85ZM195,75L205,75L205,85L195,85ZM215,75L225,75L225,85L215,85ZM235,75L305,75L305,85L235,85ZM105,85L115,85L115,95L105,95ZM125,85L135,85L135,95L125,95ZM155,85L225,85L225,95L155,95ZM15,95L55,95L55,105L15,105ZM75,95L85,95L85,105L75,105ZM95,95L105,95L105,105L95,105ZM205,95L215,95L215,105L205,105ZM225,95L235,95L235,105L225,105ZM255,95L285,95L285,105L255,105ZM295,95L305,95L305,105L295,105ZM15,105L35,105L35,115L15,115ZM55,105L65,105L65,115L55,115ZM85,105L95,105L95,115L85,115ZM105,105L115,105L115,115L105,115ZM155,105L165,105L165,115L155,115ZM175,105L185,105L185,115L175,115ZM255,105L275,105L275,115L255,115ZM285,105L295,105L295,115L285,115ZM35,115L55,115L55,125L35,125ZM65,115L105,115L105,125L65,125ZM145,115L155,115L155,125L145,125ZM165,115L175,115L175,125L165,125ZM195,115L205,115L205,125L195,125ZM225,115L235,115L235,125L225,125ZM245,115L275,115L275,125L245,125ZM285,115L295,115L295,125L285,125ZM15,125L45,125L45,135L15,135ZM65,125L75,125L75,135L65,135ZM95,125L105,125L105,135L95,135ZM125,125L155,125L155,135L125,135ZM165,125L185,125L185,135L165,135ZM195,125L205,125L205,135L195,135ZM245,125L255,125L255,135L245,135ZM285,125L295,125L295,135L285,135ZM15,135L25,135L25,145L15,145ZM45,135L85,135L85,145L45,145ZM105,135L115,135L115,145L105,145ZM125,135L135,135L135,145L125,145ZM145,135L155,135L155,145L145,145ZM165,135L175,135L175,145L165,145ZM185,135L205,135L205,145L185,145ZM235,135L255,135L255,145L235,145ZM65,145L75,145L75,155L65,155ZM95,145L105,145L105,155L95,155ZM115,145L135,145L135,155L115,155ZM175,145L195,145L195,155L175,155ZM215,145L225,145L225,155L215,155ZM245,145L255,145L255,155L245,155ZM265,145L285,145L285,155L265,155ZM15,155L25,155L25,165L15,165ZM75,155L95,155L95,165L75,165ZM105,155L125,155L125,165L105,165ZM135,155L145,155L145,165L135,165ZM155,155L165,155L165,165L155,165ZM195,155L205,155L205,165L195,165ZM215,155L245,155L245,165L215,165ZM255,155L265,155L265,165L255,165ZM275,155L285,155L285,165L275,165ZM15,165L25,165L25,175L15,175ZM35,165L45,165L45,175L35,175ZM55,165L75,165L75,175L55,175ZM85,165L105,165L105,175L85,175ZM115,165L125,165L125,175L115,175ZM135,165L145,165L145,175L135,175ZM175,165L185,165L185,175L175,175ZM205,165L215,165L215,175L205,175ZM225,165L265,165L265,175L225,175ZM285,165L305,165L305,175L285,175ZM15,175L25,175L25,185L15,185ZM45,175L65,175L65,185L45,185ZM75,175L95,175L95,185L75,185ZM105,175L115,175L115,185L105,185ZM125,175L135,175L135,185L125,185ZM155,175L165,175L165,185L155,185ZM175,175L185,175L185,185L175,185ZM215,175L225,175L225,185L215,185ZM235,175L245,175L245,185L235,185ZM255,175L265,175L265,185L255,185ZM275,175L295,175L295,185L275,185ZM35,185L65,185L65,195L35,195ZM105,185L115,185L115,195L105,195ZM135,185L185,185L185,195L135,195ZM235,185L275,185L275,195L235,195ZM285,185L305,185L305,195L285,195ZM15,195L25,195L25,205L15,205ZM35,195L55,195L55,205L35,205ZM75,195L85,195L85,205L75,205ZM125,195L175,195L175,205L125,205ZM185,195L195,195L195,205L185,205ZM205,195L225,195L225,205L205,205ZM265,195L305,195L305,205L265,205ZM35,205L55,205L55,215L35,215ZM65,205L75,205L75,215L65,215ZM95,205L125,205L125,215L95,215ZM135,205L145,205L145,215L135,215ZM155,205L195,205L195,215L155,215ZM205,205L225,205L225,215L205,215ZM235,205L245,205L245,215L235,215ZM295,205L305,205L305,215L295,215ZM25,215L95,215L95,225L25,225ZM105,215L165,215L165,225L105,225ZM195,215L285,215L285,225L195,225ZM295,215L305,215L305,225L295,225ZM95,225L105,225L105,235L95,235ZM115,225L125,225L125,235L115,235ZM135,225L145,225L145,235L135,235ZM155,225L185,225L185,235L155,235ZM215,225L225,225L225,235L215,235ZM255,225L265,225L265,235L255,235ZM285,225L295,225L295,235L285,235ZM15,235L85,235L85,245L15,245ZM105,235L115,235L115,245L105,245ZM125,235L155,235L155,245L125,245ZM195,235L205,235L205,245L195,245ZM215,235L225,235L225,245L215,245ZM235,235L245,235L245,245L235,245ZM255,235L265,235L265,245L255,245ZM285,235L295,235L295,245L285,245ZM15,245L25,245L25,255L15,255ZM75,245L85,245L85,255L75,255ZM105,245L115,245L115,255L105,255ZM145,245L155,245L155,255L145,255ZM165,245L175,245L175,255L165,255ZM215,245L225,245L225,255L215,255ZM255,245L265,245L265,255L255,255ZM275,245L285,245L285,255L275,255ZM15,255L25,255L25,265L15,265ZM35,255L65,255L65,265L35,265ZM75,255L85,255L85,265L75,265ZM105,255L125,255L125,265L105,265ZM135,255L145,255L145,265L135,265ZM155,255L175,255L175,265L155,265ZM215,255L305,255L305,265L215,265ZM15,265L25,265L25,275L15,275ZM35,265L65,265L65,275L35,275ZM75,265L85,265L85,275L75,275ZM95,265L105,265L105,275L95,275ZM125,265L145,265L145,275L125,275ZM165,265L175,265L175,275L165,275ZM185,265L195,265L195,275L185,275ZM205,265L215,265L215,275L205,275ZM225,265L255,265L255,275L225,275ZM275,265L295,265L295,275L275,275ZM15,275L25,275L25,285L15,285ZM35,275L65,275L65,285L35,285ZM75,275L85,275L85,285L75,285ZM95,275L135,275L135,285L95,285ZM145,275L155,275L155,285L145,285ZM185,275L205,275L205,285L185,285ZM225,275L235,275L235,285L225,285ZM245,275L285,275L285,285L245,285ZM295,275L305,275L305,285L295,285ZM15,285L25,285L25,295L15,295ZM75,285L85,285L85,295L75,295ZM95,285L105,285L105,295L95,295ZM125,285L135,285L135,295L125,295ZM175,285L225,285L225,295L175,295ZM265,285L285,285L285,295L265,295ZM295,285L305,285L305,295L295,295ZM15,295L85,295L85,305L15,305ZM95,295L105,295L105,305L95,305ZM115,295L125,295L125,305L115,305ZM155,295L165,295L165,305L155,305ZM175,295L195,295L195,305L175,305ZM215,295L245,295L245,305L215,305ZM265,295L275,295L275,305L265,305ZM285,295L295,295L295,305L285,305Z"/></svg>
