<?xml version="1.0"?>
<svg xmlns="http://www.w3.org/2000/svg" xmlns:xlink="http://www.w3.org/1999/xlink" version="1.1" width="320px" height="320px" viewBox="0 0 320 320"><rect x="0" y="0" width="320" height="320" fill="#ffffff" fill-opacity="1"/><path fill="#000000" fill-opacity="1" d="M15,15L85,15L85,25L15,25ZM115,15L125,15L125,25L115,25ZM165,15L175,15L175,25L165,25ZM195,15L205,15L205,25L195,25ZM215,15L225,15L225,25L215,25ZM235,15L305,15L305,25L235,25ZM15,25L25,25L25,35L15,35ZM75,25L85,25L85,35L75,35ZM95,25L125,25L125,35L95,35ZM145,25L155,25L155,35L145,35ZM165,25L175,25L175,35L165,35ZM215,25L225,25L225,35L215,35ZM235,25L245,25L245,35L235,35ZM295,25L305,25L305,35L295,35ZM15,35L25,35L25,45L15,45ZM35,35L65,35L65,45L35,45ZM75,35L85,35L85,45L75,45ZM95,35L105,35L105,45L95,45ZM155,35L185,35L185,45L155,45ZM195,35L215,35L215,45L195,45ZM235,35L245,35L245,45L235,45ZM255,35L285,35L285,45L255,45ZM295,35L305,35L305,45L295,45ZM15,45L25,45L25,55L15,55ZM35,45L65,45L65,55L35,55ZM75,45L85,45L85,55L75,55ZM105,45L115,45L115,55L105,55ZM135,45L155,45L155,55L135,55ZM165,45L175,45L175,55L165,55ZM195,45L215,45L215,55L195,55ZM235,45L245,45L245,55L235,55ZM255,45L285,45L285,55L255,55ZM295,45L305,45L305,55L295,55ZM15,55L25,55L25,65L15,65ZM35,55L65,55L65,65L35,65ZM75,55L85,55L85,65L75,65ZM95,55L125,55L125,65L95,65ZM135,55L155,55L155,65L135,65ZM175,55L185,55L185,65L175,65ZM205,55L225,55L225,65L205,65ZM235,55L245,55L245,65L235,65ZM255,55L285,55L285,65L255,65ZM295,55L305,55L305,65L295,65ZM15,65L25,65L25,75L15,75ZM75,65L85,65L85,75L75,75ZM95,65L105,65L105,75L95,75ZM115,65L125,65L125,75L115,75ZM135,65L145,65L145,75L135,75ZM155,65L205,65L205,75L155,75ZM235,65L245,65L245,75L235,75ZM295,65L305,65L305,75L295,75ZM15,75L85,75L85,85L15,85ZM95,75L105,75L105,85L95,85ZM115,75L125,75L125,85L115,85ZM135,75L145,75L145,85L135,85ZM155,75L165,75L165,85L155,85ZM175,75L185,75L185,85L175,85ZM195,75L205,75L205,85L195,85ZM215,75L225,75L225,85L215,85ZM235,75L305,75L305,85L235,85ZM95,85L105,85L105,95L95,95ZM115,85L135,85L135,95L115,95ZM145,85L165,85L165,95L145,95ZM175,85L215,85L215,95L175,95ZM15,95L35,95L35,105L15,105ZM45,95L55,95L55,105L45,105ZM75,95L95,95L95,105L75,105ZM125,95L145,95L145,105L125,105ZM185,95L205,95L205,105L185,105ZM235,95L265,95L265,105L235,105ZM275,95L295,95L295,105L275,105ZM25,105L45,105L45,115L25,115ZM55,105L75,105L75,115L55,115ZM85,105L115,105L115,115L85,115ZM125,105L165,105L165,115L125,115ZM175,105L215,105L215,115L175,115ZM245,105L255,105L255,115L245,115ZM285,105L295,105L295,115L285,115ZM15,115L25,115L25,125L15,125ZM75,115L85,115L85,125L75,125ZM125,115L145,115L145,125L125,125ZM165,115L175,115L175,125L165,125ZM185,115L195,115L195,125L185,125ZM205,115L215,115L215,125L205,125ZM225,115L235,115L235,125L225,125ZM285,115L295,115L295,125L285,125ZM15,125L35,125L35,135L15,135ZM95,125L165,125L165,135L95,135ZM195,125L205,125L205,135L195,135ZM215,125L255,125L255,135L215,135ZM275,125L285,125L285,135L275,135ZM295,125L305,125L305,135L295,135ZM25,135L35,135L35,145L25,145ZM45,135L85,135L85,145L45,145ZM95,135L105,135L105,145L95,145ZM115,135L135,135L135,145L115,145ZM145,135L155,135L155,145L145,145ZM175,135L205,135L205,145L175,145ZM215,135L235,135L235,145L215,145ZM245,135L255,135L255,145L245,145ZM275,135L305,135L305,145L275,145ZM15,145L25,145L25,155L15,155ZM35,145L45,145L45,155L35,155ZM55,145L75,145L75,155L55,155ZM85,145L95,145L95,155L85,155ZM125,145L135,145L135,155L125,155ZM165,145L175,145L175,155L165,155ZM185,145L195,145L195,155L185,155ZM225,145L255,145L255,155L225,155ZM265,145L275,145L275,155L265,155ZM285,145L305,145L305,155L285,155ZM15,155L25,155L25,165L15,165ZM35,155L45,155L45,165L35,165ZM75,155L95,155L95,165L75,165ZM115,155L135,155L135,165L115,165ZM145,155L165,155L165,165L145,165ZM185,155L195,155L195,165L185,165ZM205,155L255,155L255,165L205,165ZM265,155L285,155L285,165L265,165ZM15,165L25,165L25,175L15,175ZM35,165L45,165L45,175L35,175ZM55,165L65,165L65,175L55,175ZM85,165L95,165L95,175L85,175ZM115,165L135,165L135,175L115,175ZM145,165L155,165L155,175L145,175ZM175,165L205,165L205,175L175,175ZM225,165L245,165L245,175L225,175ZM265,165L275,165L275,175L265,175ZM285,165L305,165L305,175L285,175ZM15,175L35,175L35,185L15,185ZM45,175L85,175L85,185L45,185ZM105,175L115,175L115,185L105,185ZM135,175L145,175L145,185L135,185ZM155,175L165,175L165,185L155,185ZM175,175L225,175L225,185L175,185ZM235,175L255,175L255,185L235,185ZM265,175L295,175L295,185L265,185ZM25,185L35,185L35,195L25,195ZM65,185L75,185L75,195L65,195ZM95,185L105,185L105,195L95,195ZM135,185L165,185L165,195L135,195ZM215,185L235,185L235,195L215,195ZM245,185L285,185L285,195L245,195ZM15,195L25,195L25,205L15,205ZM45,195L55,195L55,205L45,205ZM65,195L85,195L85,205L65,205ZM115,195L165,195L165,205L115,205ZM175,195L195,195L195,205L175,205ZM205,195L215,195L215,205L205,205ZM225,195L245,195L245,205L225,205ZM265,195L275,195L275,205L265,205ZM35,205L45,205L45,215L35,215ZM105,205L115,205L115,215L105,215ZM135,205L145,205L145,215L135,215ZM155,205L165,205L165,215L155,215ZM185,205L195,205L195,215L185,215ZM205,205L215,205L215,215L205,215ZM225,205L235,205L235,215L225,215ZM275,205L295,205L295,215L275,215ZM15,215L25,215L25,225L15,225ZM35,215L45,215L45,225L35,225ZM55,215L65,215L65,225L55,225ZM75,215L85,215L85,225L75,225ZM95,215L125,215L125,225L95,225ZM145,215L165,215L165,225L145,225ZM185,215L195,215L195,225L185,225ZM215,215L265,215L265,225L215,225ZM275,215L285,215L285,225L275,225ZM295,215L305,215L305,225L295,225ZM95,225L115,225L115,235L95,235ZM125,225L135,225L135,235L125,235ZM145,225L155,225L155,235L145,235ZM165,225L225,225L225,235L165,235ZM255,225L275,225L275,235L255,235ZM285,225L295,225L295,235L285,235ZM15,235L85,235L85,245L15,245ZM95,235L105,235L105,245L95,245ZM115,235L125,235L125,245L115,245ZM155,235L165,235L165,245L155,245ZM185,235L195,235L195,245L185,245ZM205,235L225,235L225,245L205,245ZM235,235L245,235L245,245L235,245ZM255,235L275,235L275,245L255,245ZM285,235L295,235L295,245L285,245ZM15,245L25,245L25,255L15,255ZM75,245L85,245L85,255L75,255ZM105,245L125,245L125,255L105,255ZM175,245L185,245L185,255L175,255ZM215,245L225,245L225,255L215,255ZM255,245L265,245L265,255L255,255ZM285,245L305,245L305,255L285,255ZM15,255L25,255L25,265L15,265ZM35,255L65,255L65,265L35,265ZM75,255L85,255L85,265L75,265ZM105,255L125,255L125,265L105,265ZM135,255L145,255L145,265L135,265ZM155,255L165,255L165,265L155,265ZM175,255L185,255L185,265L175,265ZM215,255L275,255L275,265L215,265ZM15,265L25,265L25,275L15,275ZM35,265L65,265L65,275L35,275ZM75,265L85,265L85,275L75,275ZM95,265L115,265L115,275L95,275ZM125,265L145,265L145,275L125,275ZM175,265L195,265L195,275L175,275ZM205,265L225,265L225,275L205,275ZM245,265L255,265L255,275L245,275ZM295,265L305,265L305,275L295,275ZM15,275L25,275L25,285L15,285ZM35,275L65,275L65,285L35,285ZM75,275L85,275L85,285L75,285ZM115,275L125,275L125,285L115,285ZM135,275L145,275L145,285L135,285ZM205,275L215,275L215,285L205,285ZM225,275L235,275L235,285L225,285ZM275,275L285,275L285,285L275,285ZM295,275L305,275L305,285L295,285ZM15,285L25,285L25,295L15,295ZM75,285L85,285L85,295L75,295ZM95,285L105,285L105,295L95,295ZM115,285L125,285L125,295L115,295ZM135,285L155,285L155,295L135,295ZM175,285L185,285L185,295L175,295ZM215,285L225,285L225,295L215,295ZM245,285L265,285L265,295L245,295ZM275,285L285,285L285,295L275,295ZM295,285L305,285L305,295L295,295ZM15,295L85,295L85,305L15,305ZM95,295L105,295L105,305L95,305ZM115,295L165,295L165,305L115,305ZM175,295L185,295L185,305L175,305ZM195,295L265,295L265,305L195,305ZM285,295L295,295L295,305L285,305Z"/></svg>
